# xmcd CD database file
#
# Track frame offsets:
#	150
#	28327
#	55043
#	90730
#	136235
#	180892
#	217413
#	247710
#	301133
#
# Disc length: 4752 seconds
#
# Revision: 0
# Processed by: cddbd v1.5.2PL0 Copyright (c) Steve Scherf et al.
# Submitted via: CDex 1.51
#
DISCID=71128e09
DTITLE=Andreas Schmidt and David Liebman and Friends - In Berlin
DYEAR=2003
DGENRE=Jazz
TTITLE0=all the thinx witches are
TTITLE1=omerta
TTITLE2=pages
TTITLE3=el chupanebre
TTITLE4=guided dream
TTITLE5=aguas azules
TTITLE6=missing persons
TTITLE7=the code's secret code
TTITLE8=gentle warrior
EXTD=YEAR: 2003
EXTT0=
EXTT1=
EXTT2=
EXTT3=
EXTT4=
EXTT5=
EXTT6=
EXTT7=
EXTT8=
PLAYORDER=
